<svg id="svg" version="1.1" xmlns="http://www.w3.org/2000/svg" xmlns:xlink="http://www.w3.org/1999/xlink" width="400" height="400" viewBox="0, 0, 400,400"><g id="svgg"><path id="path0" d="M69.614 125.000 C 69.621 125.110,69.958 127.873,70.362 131.141 C 70.766 134.408,71.039 137.138,70.970 137.208 C 70.901 137.277,64.984 137.333,57.822 137.333 L 44.800 137.333 44.800 144.400 L 44.800 151.467 77.200 151.467 L 109.600 151.467 109.600 157.467 L 109.600 163.467 79.067 163.467 L 48.533 163.467 48.533 170.533 L 48.533 177.600 79.067 177.600 L 109.600 177.600 109.600 183.200 L 109.600 188.800 79.067 188.800 L 48.533 188.800 48.533 196.000 L 48.533 203.200 79.067 203.200 L 109.600 203.200 109.600 210.000 L 109.600 216.800 77.200 216.800 L 44.800 216.800 44.800 224.000 L 44.800 231.200 75.200 231.200 C 91.920 231.200,105.600 231.273,105.600 231.362 C 105.600 231.451,105.210 232.018,104.733 232.623 C 93.612 246.729,72.072 257.018,50.981 258.299 L 48.008 258.480 47.340 260.640 C 46.973 261.828,45.789 265.560,44.709 268.933 C 43.630 272.307,42.759 275.086,42.773 275.109 C 42.848 275.227,50.925 274.353,54.343 273.857 C 82.090 269.829,105.745 257.963,117.185 242.333 C 118.772 240.166,118.459 240.143,120.400 242.564 C 133.011 258.298,158.983 271.125,185.067 274.501 L 186.267 274.656 190.533 267.188 C 192.880 263.080,194.834 259.569,194.875 259.385 C 194.929 259.143,194.039 258.962,191.675 258.735 C 168.680 256.522,146.830 247.164,134.333 234.177 C 133.050 232.843,132.000 231.628,132.000 231.476 C 132.000 231.287,141.633 231.200,162.404 231.200 L 192.809 231.200 192.738 224.067 L 192.667 216.933 160.067 216.866 L 127.467 216.798 127.467 209.999 L 127.467 203.200 158.000 203.200 L 188.533 203.200 188.533 196.000 L 188.533 188.800 158.000 188.800 L 127.467 188.800 127.467 183.200 L 127.467 177.600 158.000 177.600 L 188.533 177.600 188.533 170.533 L 188.533 163.467 158.000 163.467 L 127.467 163.467 127.467 157.467 L 127.467 151.467 160.133 151.467 L 192.800 151.467 192.800 144.400 L 192.800 137.333 179.778 137.333 C 172.616 137.333,166.700 137.278,166.632 137.210 C 166.565 137.143,166.768 135.133,167.084 132.744 C 167.400 130.355,167.731 127.590,167.819 126.600 L 167.980 124.800 158.806 124.800 L 149.633 124.800 149.490 125.933 C 149.412 126.557,149.159 128.627,148.928 130.533 C 148.697 132.440,148.364 134.720,148.188 135.600 L 147.867 137.200 118.739 137.268 L 89.611 137.336 89.474 136.735 C 89.348 136.180,87.733 125.231,87.733 124.932 C 87.733 124.860,83.653 124.800,78.667 124.800 C 73.680 124.800,69.606 124.890,69.614 125.000 M214.198 197.798 L 214.267 267.600 215.017 269.128 C 215.894 270.913,217.157 272.044,219.200 272.872 L 220.667 273.467 289.003 273.537 L 357.339 273.607 357.270 204.070 L 357.200 134.533 356.594 133.034 C 355.832 131.152,354.461 129.725,352.551 128.830 L 351.067 128.133 282.598 128.065 L 214.129 127.996 214.198 197.798 M340.000 200.667 L 340.000 258.667 285.733 258.667 L 231.467 258.667 231.467 200.667 L 231.467 142.667 285.733 142.667 L 340.000 142.667 340.000 200.667 M298.605 157.000 L 298.533 163.333 269.400 163.401 L 240.267 163.469 240.267 170.401 L 240.267 177.333 252.933 177.333 L 265.600 177.333 265.600 178.248 C 265.600 179.596,264.636 186.769,263.865 191.160 C 260.225 211.890,252.110 233.790,242.778 248.067 L 241.079 250.667 250.531 250.667 L 259.984 250.667 260.878 249.267 C 270.484 234.227,279.908 204.248,282.485 180.533 L 282.818 177.467 290.762 177.396 L 298.706 177.325 298.587 202.063 C 298.507 218.889,298.368 227.568,298.154 229.200 C 297.296 235.740,295.229 243.175,292.818 248.393 L 291.768 250.667 301.071 250.667 L 310.373 250.667 311.299 247.800 C 313.135 242.115,314.280 236.716,315.103 229.862 C 315.462 226.874,315.555 222.133,315.655 201.800 L 315.775 177.333 323.887 177.333 L 332.000 177.333 332.000 170.400 L 332.000 163.467 323.867 163.467 L 315.733 163.467 315.733 157.067 L 315.733 150.667 307.205 150.667 L 298.676 150.667 298.605 157.000 " stroke="none" fill="#040404" fill-rule="evenodd"></path><path id="path1" d="M99.333 2.841 C 65.004 4.556,46.115 11.485,28.933 28.667 C 12.859 44.741,5.592 62.999,3.409 92.800 C 2.909 99.622,2.909 300.111,3.409 306.933 C 5.592 336.734,12.859 354.992,28.933 371.067 C 45.008 387.141,63.266 394.408,93.067 396.591 C 99.889 397.091,300.378 397.091,307.200 396.591 C 336.984 394.409,355.268 387.132,371.333 371.067 C 387.388 355.012,394.677 336.698,396.858 306.933 C 397.358 300.111,397.358 99.622,396.858 92.800 C 394.674 62.999,387.408 44.741,371.333 28.667 C 355.413 12.747,338.067 5.759,308.000 3.154 C 304.775 2.874,104.670 2.574,99.333 2.841 M88.495 129.000 C 88.828 131.310,89.228 134.070,89.383 135.133 L 89.665 137.067 118.681 137.067 C 146.084 137.067,147.705 137.041,147.839 136.600 C 148.039 135.941,149.004 129.049,149.221 126.733 L 149.402 124.800 158.781 124.800 L 168.160 124.800 168.062 125.800 C 167.833 128.136,166.933 135.403,166.774 136.200 L 166.600 137.067 179.700 137.067 L 192.800 137.067 192.800 144.400 L 192.800 151.733 160.133 151.733 L 127.467 151.733 127.467 157.466 L 127.467 163.198 158.067 163.266 L 188.667 163.333 188.667 170.533 L 188.667 177.733 158.067 177.801 L 127.467 177.869 127.467 183.334 L 127.467 188.800 158.133 188.800 L 188.800 188.800 188.800 196.000 L 188.800 203.200 158.133 203.200 L 127.467 203.200 127.467 210.000 L 127.467 216.800 160.133 216.800 L 192.800 216.800 192.800 224.132 L 192.800 231.464 162.467 231.532 L 132.133 231.600 135.600 235.075 C 148.031 247.535,168.040 255.976,191.185 258.523 C 193.303 258.756,195.091 259.003,195.159 259.070 C 195.273 259.184,194.268 260.977,188.458 271.035 L 186.320 274.736 184.509 274.567 C 161.309 272.411,130.960 257.188,119.733 242.074 C 118.595 240.541,118.908 240.401,116.337 243.600 C 103.849 259.145,81.828 269.982,54.595 273.985 C 49.558 274.725,43.009 275.365,42.783 275.138 C 42.697 275.052,43.816 271.221,45.270 266.624 L 47.914 258.267 51.223 258.087 C 70.845 257.022,92.452 247.078,103.248 234.144 L 105.371 231.600 75.086 231.532 L 44.800 231.464 44.800 224.132 L 44.800 216.800 77.200 216.800 L 109.600 216.800 109.600 210.001 L 109.600 203.202 79.000 203.134 L 48.400 203.067 48.400 196.000 L 48.400 188.933 79.000 188.866 L 109.600 188.798 109.600 183.333 L 109.600 177.869 79.000 177.801 L 48.400 177.733 48.400 170.533 L 48.400 163.333 79.000 163.266 L 109.600 163.198 109.600 157.466 L 109.600 151.733 77.200 151.733 L 44.800 151.733 44.800 144.400 L 44.800 137.067 57.867 137.067 C 65.053 137.067,70.927 136.977,70.920 136.867 C 70.912 136.757,70.576 133.997,70.173 130.733 L 69.439 124.800 78.664 124.800 L 87.889 124.800 88.495 129.000 M352.065 128.358 C 353.832 129.044,355.796 130.892,356.564 132.592 L 357.200 134.000 357.269 203.802 L 357.337 273.604 288.708 273.535 L 220.080 273.467 218.240 272.531 C 216.816 271.807,216.205 271.304,215.536 270.305 C 213.734 267.613,213.867 273.440,213.867 197.016 L 213.867 127.728 282.333 127.797 C 348.116 127.864,350.850 127.886,352.065 128.358 M231.467 200.667 L 231.467 258.667 285.600 258.667 L 339.733 258.667 339.733 200.667 L 339.733 142.667 285.600 142.667 L 231.467 142.667 231.467 200.667 M315.938 156.867 L 316.010 163.200 324.138 163.200 L 332.267 163.200 332.267 170.267 L 332.267 177.333 324.133 177.333 L 316.000 177.333 315.994 196.600 C 315.985 229.514,315.281 236.932,310.990 249.333 L 310.483 250.800 301.108 250.870 C 295.952 250.909,291.733 250.839,291.733 250.716 C 291.733 250.593,292.215 249.381,292.804 248.023 C 297.963 236.129,298.210 234.099,298.332 202.600 L 298.430 177.333 290.718 177.333 L 283.006 177.333 282.692 180.200 C 280.112 203.728,270.857 233.616,261.533 248.533 L 260.117 250.800 250.592 250.870 C 244.028 250.918,241.067 250.852,241.067 250.658 C 241.067 250.503,241.648 249.511,242.358 248.455 C 252.904 232.764,262.071 206.150,264.926 182.933 C 265.151 181.100,265.402 179.090,265.484 178.467 L 265.633 177.333 252.950 177.333 L 240.267 177.333 240.267 170.267 L 240.267 163.200 269.333 163.200 L 298.400 163.200 298.400 156.978 C 298.400 153.556,298.482 150.674,298.581 150.574 C 298.681 150.474,302.611 150.424,307.315 150.463 L 315.867 150.533 315.938 156.867 " stroke="none" fill="#fbd604" fill-rule="evenodd"></path><path id="path2" d="M298.515 156.933 C 298.515 160.453,298.553 161.856,298.599 160.051 C 298.646 158.246,298.645 155.366,298.599 153.651 C 298.553 151.936,298.515 153.413,298.515 156.933 M298.527 198.667 C 298.527 210.473,298.560 215.303,298.600 209.400 C 298.640 203.497,298.640 193.837,298.600 187.933 C 298.560 182.030,298.527 186.860,298.527 198.667 M124.133 246.933 C 124.856 247.667,125.507 248.267,125.580 248.267 C 125.653 248.267,125.122 247.667,124.400 246.933 C 123.678 246.200,123.027 245.600,122.953 245.600 C 122.880 245.600,123.411 246.200,124.133 246.933 " stroke="none" fill="#9c8204" fill-rule="evenodd"></path><path id="path3" d="M307.129 150.598 L 315.724 150.674 315.802 156.870 L 315.881 163.067 315.874 156.800 L 315.867 150.533 307.200 150.528 L 298.533 150.522 307.129 150.598 M48.393 170.533 L 48.400 177.733 79.000 177.735 L 109.600 177.737 79.071 177.667 L 48.542 177.598 48.464 170.466 L 48.386 163.333 48.393 170.533 M188.595 170.466 L 188.533 177.598 157.933 177.667 L 127.333 177.736 157.942 177.801 C 182.442 177.854,188.576 177.799,188.680 177.529 C 188.751 177.343,188.775 174.073,188.733 170.262 L 188.657 163.333 188.595 170.466 M315.860 197.733 C 315.860 209.027,315.893 213.608,315.933 207.914 C 315.973 202.219,315.973 192.979,315.933 187.380 C 315.893 181.781,315.860 186.440,315.860 197.733 M188.650 196.000 C 188.650 200.033,188.687 201.683,188.733 199.667 C 188.778 197.650,188.778 194.350,188.733 192.333 C 188.687 190.317,188.650 191.967,188.650 196.000 M48.383 196.000 C 48.383 199.887,48.420 201.477,48.466 199.533 C 48.512 197.590,48.512 194.410,48.466 192.467 C 48.420 190.523,48.383 192.113,48.383 196.000 M135.067 234.933 C 135.640 235.520,136.168 236.000,136.242 236.000 C 136.315 236.000,135.906 235.520,135.333 234.933 C 134.760 234.347,134.232 233.867,134.158 233.867 C 134.085 233.867,134.494 234.347,135.067 234.933 M245.817 250.866 C 248.504 250.910,252.824 250.910,255.417 250.866 C 258.011 250.823,255.813 250.787,250.533 250.787 C 245.253 250.787,243.131 250.823,245.817 250.866 M296.333 250.866 C 298.937 250.910,303.197 250.910,305.800 250.866 C 308.403 250.823,306.273 250.787,301.067 250.787 C 295.860 250.787,293.730 250.823,296.333 250.866 " stroke="none" fill="#c1a604" fill-rule="evenodd"></path><path id="path4" d="M213.933 196.867 L 213.999 266.000 214.067 197.001 L 214.134 128.001 281.667 127.933 L 349.200 127.866 281.533 127.799 L 213.867 127.733 213.933 196.867 M57.867 137.067 L 44.667 137.208 57.784 137.270 C 66.310 137.311,70.960 137.240,71.067 137.067 C 71.157 136.920,71.194 136.828,71.149 136.863 C 71.104 136.897,65.127 136.989,57.867 137.067 M118.667 137.067 L 89.467 137.204 118.584 137.268 C 137.779 137.311,147.758 137.242,147.867 137.067 C 147.957 136.920,147.994 136.829,147.949 136.865 C 147.904 136.901,134.727 136.991,118.667 137.067 M166.629 137.136 C 166.741 137.247,172.705 137.307,179.883 137.269 L 192.933 137.200 179.680 137.067 C 172.390 136.993,166.518 137.024,166.629 137.136 M339.864 200.667 C 339.864 232.640,339.895 245.760,339.933 229.821 C 339.971 213.883,339.971 187.723,339.933 171.688 C 339.895 155.653,339.864 168.693,339.864 200.667 M61.021 151.667 C 70.015 151.706,84.655 151.706,93.554 151.667 C 102.453 151.628,95.093 151.596,77.200 151.596 C 59.307 151.596,52.026 151.628,61.021 151.667 M143.821 151.667 C 152.889 151.706,167.649 151.706,176.621 151.667 C 185.593 151.628,178.173 151.596,160.133 151.596 C 142.093 151.596,134.753 151.628,143.821 151.667 M63.646 163.400 C 72.031 163.439,85.831 163.439,94.313 163.400 C 102.794 163.361,95.933 163.329,79.067 163.329 C 62.200 163.329,55.261 163.361,63.646 163.400 M142.579 163.400 C 150.965 163.439,164.765 163.439,173.246 163.400 C 181.727 163.361,174.867 163.329,158.000 163.329 C 141.133 163.329,134.194 163.361,142.579 163.400 M254.733 163.400 C 262.763 163.439,275.903 163.439,283.933 163.400 C 291.963 163.361,285.393 163.329,269.333 163.329 C 253.273 163.329,246.703 163.361,254.733 163.400 M323.796 163.398 L 331.991 163.474 332.069 170.337 L 332.147 177.200 332.140 170.267 L 332.133 163.333 323.867 163.327 L 315.600 163.321 323.796 163.398 M298.483 221.467 C 298.484 222.347,298.534 222.675,298.593 222.195 C 298.653 221.716,298.651 220.996,298.591 220.595 C 298.530 220.195,298.481 220.587,298.483 221.467 M315.539 223.200 C 315.539 223.860,315.591 224.130,315.655 223.800 C 315.718 223.470,315.718 222.930,315.655 222.600 C 315.591 222.270,315.539 222.540,315.539 223.200 M75.015 231.400 C 97.807 231.452,105.316 231.545,105.174 231.776 C 105.057 231.965,105.102 232.010,105.292 231.892 C 105.461 231.787,105.600 231.589,105.600 231.451 C 105.600 231.295,94.039 231.225,75.133 231.266 L 44.667 231.331 75.015 231.400 M147.154 231.400 C 155.562 231.439,169.242 231.439,177.554 231.400 C 185.866 231.361,178.987 231.329,162.267 231.329 C 145.547 231.329,138.746 231.361,147.154 231.400 M100.383 237.400 L 99.600 238.267 100.467 237.483 C 101.275 236.753,101.456 236.533,101.250 236.533 C 101.204 236.533,100.814 236.923,100.383 237.400 M111.726 248.467 L 110.000 250.267 111.800 248.541 C 113.472 246.938,113.722 246.667,113.526 246.667 C 113.485 246.667,112.675 247.477,111.726 248.467 " stroke="none" fill="#746404" fill-rule="evenodd"></path></g></svg>