<?xml version="1.0" encoding="UTF-8"?>
<svg version="1.1" viewBox="0 0 1600 520" width="1280" height="1280" xmlns="http://www.w3.org/2000/svg">
<path transform="translate(1179 18.9)" d="m0 0c0.704 0.00202 1.41 0.00405 2.13 0.00613 0.738-0.00175 1.48-0.0035 2.24-0.00531 2.45-0.00442 4.9-0.00148 7.36 0.00189 1.7-6.73e-4 3.4-0.00164 5.09-0.0029 3.56-0.00148 7.13 6.78e-4 10.7 0.00534 4.57 0.00569 9.15 0.00242 13.7-0.00357 3.51-0.00361 7.02-0.00247 10.5 1.28e-4 1.69 6.69e-4 3.37-1.57e-4 5.06-0.00248 2.36-0.00253 4.71 0.00132 7.07 0.0069 0.702-0.00202 1.4-0.00405 2.13-0.00613 4.83 0.0213 4.83 0.0213 7.06 1.14 0.625 2.06 0.625 2.06 1 4 1.22 0.0606 2.43 0.121 3.68 0.184 1.58 0.0844 3.17 0.169 4.75 0.254 0.802 0.0393 1.6 0.0786 2.43 0.119 6.02 0.33 6.02 0.33 7.13 1.44 0.0406 1.67 0.0427 3.33 0 5 2.31 0.33 4.62 0.66 7 1-0.33 0.66-0.66 1.32-1 2 0.0629 2.15 0.198 4.3 0.375 6.44 0.0902 1.15 0.18 2.31 0.273 3.5 0.249 3.1 0.249 3.1 1.35 6.07 1.65 0.66 3.3 1.32 5 2 0.33 5.94 0.66 11.9 1 18 1.98 0.66 3.96 1.32 6 2 0.33 5.61 0.66 11.2 1 17 1.65 0.66 3.3 1.32 5 2 0.33 3.96 0.66 7.92 1 12 1.65 0.66 3.3 1.32 5 2 0.973 2.92 1.19 5.05 1.32 8.11 0.0419 0.983 0.0838 1.97 0.127 2.98 0.0393 1.02 0.0786 2.05 0.119 3.1 0.0432 1.04 0.0864 2.07 0.131 3.14 0.106 2.56 0.208 5.12 0.307 7.67 1.65 0.33 3.3 0.66 5 1 0.33 3.96 0.66 7.92 1 12h5c2.12 2.12 1.42 6.62 1.56 9.56 0.0432 0.806 0.0864 1.61 0.131 2.44 0.106 2 0.207 4 0.307 5.99 1.98 0.33 3.96 0.66 6 1-0.0174 1.7-0.0174 1.7-0.0352 3.43-0.00938 1.48-0.0185 2.96-0.0273 4.45-0.00838 0.746-0.0168 1.49-0.0254 2.26-0.119 4.06-0.119 4.06 1.09 7.86 3.03 0.658 3.03 0.658 6 1-0.0206 1.28-0.0412 2.56-0.0625 3.88-0.00809 5.09 0.472 10.1 1.06 15.1 1.65 0.33 3.3 0.66 5 1 0.33 3.96 0.66 7.92 1 12 1.98 0.33 3.96 0.66 6 1v14h1v5h5c0.33 4.29 0.66 8.58 1 13 1.98 0.33 3.96 0.66 6 1v18c2.31 0.66 4.62 1.32 7 2v19h6c-0.33 3.96-0.66 7.92-1 12 2.64 0.33 5.28 0.66 8 1v18c1.98 0.33 3.96 0.66 6 1v17c2.31 0.66 4.62 1.32 7 2v14h1v6h5c0.33 5.94 0.66 11.9 1 18 1.98 0.33 3.96 0.66 6 1v14h6c0.33 6.27 0.66 12.5 1 19h6c-0.33 3.96-0.66 7.92-1 12 2.64 0.33 5.28 0.66 8 1-0.0838 0.797-0.168 1.59-0.254 2.41-0.793 7.83-0.793 7.83 0.254 15.6 1.98 0.33 3.96 0.66 6 1-0.33 4.29-0.66 8.58-1 13 2.64 0.33 5.28 0.66 8 1v24c1.98 0.33 3.96 0.66 6 1-0.33 2.64-0.66 5.28-1 8h-90c-1.49-4.47-1.49-8.53 0-13-0.949 0.0619-1.9 0.124-2.88 0.188-1.03-0.0619-2.06-0.124-3.12-0.188-2.46-3.69-2.24-5.61-2.19-10 0.00645-1.24 0.0129-2.48 0.0195-3.75 0.168-3.25 0.168-3.25 1.17-6.25h-6c-1.12-3.36-1.13-5.96-1.12-9.5-0.00258-1.14-0.00516-2.29-0.00781-3.47 0.133-3.03 0.133-3.03 1.13-6.03h-6c-2.2-3.54-2.24-6.44-2.19-10.6 0.00645-1.14 0.0129-2.27 0.0195-3.44 0.168-3 0.168-3 1.17-6h-6c-0.144-0.908-0.289-1.82-0.438-2.75-0.467-3.05-0.467-3.05-1.12-5.19-0.884-4.17-0.779-8.04 0.562-12.1h-6c-1.12-3.36-1.13-5.96-1.12-9.5-0.00258-1.14-0.00516-2.29-0.00781-3.47 0.133-3.03 0.133-3.03 1.13-6.03-0.949 0.0619-1.9 0.124-2.88 0.188-1.03-0.0619-2.06-0.124-3.12-0.188-2.45-3.68-2.23-5.65-2-10 0.33-0.99 0.66-1.98 1-3h-209l-2 19h-5c-0.33 6.6-0.66 13.2-1 20h-5c-0.0606 0.592-0.121 1.18-0.184 1.79-0.437 4.12-0.903 8.16-1.82 12.2h-5c-0.33 6.27-0.66 12.5-1 19h-5c-0.0606 0.603-0.121 1.21-0.184 1.83-0.126 1.2-0.126 1.2-0.254 2.42-0.122 1.18-0.122 1.18-0.246 2.39-0.293 2.18-0.737 4.24-1.32 6.36h-5c-0.495 12.9-0.495 12.9-1 26h-5c-0.33 4.29-0.66 8.58-1 13h-85c-1.38-4.14-1.18-8.04-1.19-12.4-0.0122-0.851-0.0245-1.7-0.0371-2.58-0.0104-4.46 0.114-7.99 2.22-12h5c-0.0206-1.22-0.0412-2.43-0.0625-3.69-0.00574-3.23 0.275-6.16 1.06-9.31h5c0.66-4.29 1.32-8.58 2-13h5l-0.0352-3.14c-0.00938-1.37-0.0185-2.74-0.0273-4.11-0.00838-0.682-0.0168-1.36-0.0254-2.07-0.0164-3.38 0.0316-6.46 1.09-9.68h5c0.0606-1.04 0.121-2.07 0.184-3.14 0.0844-1.37 0.169-2.74 0.254-4.11 0.0393-0.682 0.0786-1.36 0.119-2.07 0.21-3.33 0.463-6.49 1.44-9.68h5l-0.0352-3.36c-0.00938-1.46-0.0185-2.93-0.0273-4.39-0.00838-0.73-0.0168-1.46-0.0254-2.21-0.016-3.53 0.135-6.65 1.09-10h6l-0.0352-1.83c-0.00902-0.799-0.018-1.6-0.0273-2.42-0.0116-0.789-0.0232-1.58-0.0352-2.39 0.0938-2.27 0.465-4.19 1.1-6.36h5l-0.0352-3.36c-0.00938-1.46-0.0185-2.93-0.0273-4.39-0.00838-0.73-0.0168-1.46-0.0254-2.21-0.016-3.53 0.135-6.65 1.09-10 1.65-0.33 3.3-0.66 5-1 0.0909-1.45 0.0909-1.45 0.184-2.92 0.0838-1.26 0.168-2.53 0.254-3.83 0.0812-1.25 0.162-2.51 0.246-3.8 0.242-2.64 0.559-4.93 1.32-7.45h5c-0.0232-0.69-0.0464-1.38-0.0703-2.09-0.122-6.33 0.464-11.8 2.07-17.9h5c-0.0116-0.603-0.0232-1.21-0.0352-1.83-0.00902-0.799-0.018-1.6-0.0273-2.42-0.0116-0.789-0.0232-1.58-0.0352-2.39 0.0938-2.27 0.465-4.19 1.1-6.36h5c-0.0232-0.617-0.0464-1.23-0.0703-1.87-0.128-6.01 0.502-11.3 2.07-17.1h5c-0.0116-1.12-0.0232-2.24-0.0352-3.39-0.00938-1.47-0.0185-2.95-0.0273-4.42-0.00838-0.738-0.0168-1.48-0.0254-2.24-0.0147-3.25 0.0526-5.85 1.09-8.95h5c0.0606-0.759 0.121-1.52 0.184-2.3 0.126-1.49 0.126-1.49 0.254-3.01 0.0812-0.986 0.162-1.97 0.246-2.99 0.316-2.7 0.316-2.7 1.32-5.7h5c-0.0116-1.12-0.0232-2.24-0.0352-3.39-0.00938-1.47-0.0185-2.95-0.0273-4.42-0.00838-0.738-0.0168-1.48-0.0254-2.24-0.0147-3.25 0.0526-5.85 1.09-8.95h6c-0.0116-1.12-0.0232-2.24-0.0352-3.39-0.00938-1.47-0.0185-2.95-0.0273-4.42-0.00838-0.738-0.0168-1.48-0.0254-2.24-0.0147-3.25 0.0526-5.85 1.09-8.95h5c-0.0116-0.759-0.0232-1.52-0.0352-2.3-0.00902-0.994-0.018-1.99-0.0273-3.01-0.0116-0.986-0.0232-1.97-0.0352-2.99 0.0977-2.7 0.0977-2.7 1.1-5.7h5c0.0606-1.19 0.121-2.38 0.184-3.61 0.0844-1.57 0.169-3.13 0.254-4.7 0.0393-0.786 0.0786-1.57 0.119-2.38 0.0419-0.757 0.0838-1.51 0.127-2.29 0.0367-0.696 0.0733-1.39 0.111-2.11 0.205-1.9 0.205-1.9 1.21-4.9h5c-0.0232-0.713-0.0464-1.43-0.0703-2.16-0.108-5.72 0.15-10.4 2.07-15.8h5c-0.0116-0.843-0.0232-1.69-0.0352-2.55-0.00902-1.1-0.018-2.19-0.0273-3.32-0.0116-1.09-0.0232-2.18-0.0352-3.3 0.0977-2.82 0.0977-2.82 1.1-4.82h5c-0.0232-0.701-0.0464-1.4-0.0703-2.12-0.115-6.03 0.327-11.1 2.07-16.9h4c0.0606-1.28 0.121-2.55 0.184-3.87 0.0844-1.67 0.169-3.34 0.254-5.01 0.0393-0.842 0.0786-1.68 0.119-2.55 0.0419-0.806 0.0838-1.61 0.127-2.44 0.055-1.12 0.055-1.12 0.111-2.25 0.205-1.88 0.205-1.88 1.21-3.88h5c-0.0232-1.12-0.0464-2.24-0.0703-3.39-0.0188-1.47-0.037-2.95-0.0547-4.42-0.0168-0.738-0.0335-1.48-0.0508-2.24-0.035-3.86-0.0182-5.66 2.18-8.95 2.62-0.188 2.62-0.188 5 0-0.0116-1.28-0.0232-2.55-0.0352-3.87-0.00938-1.67-0.0185-3.34-0.0273-5.01-0.00838-0.842-0.0168-1.68-0.0254-2.55-0.00322-0.806-0.00645-1.61-0.00977-2.44-0.00524-0.744-0.0105-1.49-0.0159-2.25 0.114-1.88 0.114-1.88 1.11-3.88h5c0.0606-0.771 0.121-1.54 0.184-2.34 0.0838-1 0.168-2.01 0.254-3.04 0.122-1.5 0.122-1.5 0.246-3.02 0.316-2.6 0.316-2.6 1.32-4.6h5c-0.0116-0.687-0.0232-1.37-0.0352-2.08-0.00902-0.901-0.018-1.8-0.0273-2.73-0.0116-0.893-0.0232-1.79-0.0352-2.71 0.0977-2.48 0.0977-2.48 1.1-5.48 1.98-0.33 3.96-0.66 6-1 0.144-0.804 0.289-1.61 0.438-2.44 0.562-2.56 0.562-2.56 1.56-3.56 1.71-0.0871 3.42-0.107 5.13-0.0977 1.55 0.00483 1.55 0.00483 3.13 0.00977 1.09 0.00838 2.18 0.0168 3.3 0.0254 1.64 0.00677 1.64 0.00677 3.31 0.0137 2.71 0.0118 5.42 0.0283 8.13 0.0488 0.144-0.804 0.289-1.61 0.438-2.44 0.946-4.31 2.37-3.68 6.49-3.7zm-57.9 62.1 1 4zm78 19c-0.0721 1.69-0.0839 3.38-0.0625 5.06 0.00902 0.919 0.018 1.84 0.0273 2.79 0.0116 0.71 0.0232 1.42 0.0352 2.15h-5c-3.6 7.19-2.13 18.1-2 26h-5c-1.12 2.24-1.19 3.65-1.32 6.13-0.0628 1.21-0.0628 1.21-0.127 2.44-0.0393 0.842-0.0786 1.68-0.119 2.55-0.0648 1.27-0.0648 1.27-0.131 2.57-0.106 2.1-0.207 4.2-0.307 6.3h-5c-1.38 2.76-1.1 5.05-1.06 8.12 0.00902 1.1 0.018 2.19 0.0273 3.32 0.0116 0.843 0.0232 1.69 0.0352 2.55h-5c-1.65 3.3-1.38 6.99-1.56 10.6-0.0432 0.802-0.0864 1.6-0.131 2.43-0.106 1.98-0.207 3.96-0.307 5.95h-5c-1.65 3.31-1.1 6.99-1.06 10.6 0.00451 0.802 0.00902 1.6 0.0137 2.43 0.0118 1.98 0.0297 3.96 0.0488 5.95h-5c-1.34 4.84-2.25 8.93-2 14h-5c-1.59 3.19-1.1 6.63-1.06 10.1 0.00451 0.754 0.00902 1.51 0.0137 2.29 0.0118 1.86 0.0297 3.73 0.0488 5.59h-5c-1.42 6.78-2.23 13.1-2 20h-5c-1.25 3.76-1.11 7.27-1.06 11.2 0.00451 0.75 0.00902 1.5 0.0137 2.27 0.0118 1.85 0.0297 3.69 0.0488 5.54h-5c-2.61 3.91-2.22 7.46-2 12 1.04 1.27 1.04 1.27 3.37 1.12 1.59-0.00138 1.59-0.00138 3.22-0.00279 1.82 0.00206 1.82 0.00206 3.68 0.00417 1.36-0.00354 2.71-0.00717 4.07-0.0109 1.42-2.82e-4 2.84-1.24e-4 4.26 4.43e-4 3.86 2.88e-4 7.73-0.00561 11.6-0.0126 4.03-0.00623 8.07-0.00684 12.1-0.00803 7.64-0.00311 15.3-0.0113 22.9-0.0213 8.7-0.0112 17.4-0.0167 26.1-0.0217 17.9-0.0105 35.8-0.0281 53.7-0.0503v-3.39-15.6h-6v-13h-6c0.00524-0.57 0.0105-1.14 0.0159-1.73 0.0207-2.57 0.0338-5.14 0.0466-7.71 0.00838-0.898 0.0168-1.8 0.0254-2.72 0.00322-0.854 0.00645-1.71 0.00977-2.59 0.00524-0.791 0.0105-1.58 0.0159-2.4 0.0914-1.87 0.0914-1.87-1.11-2.86h-6v-24h-6c-0.33-6.6-0.66-13.2-1-20h-6c-0.33-4.29-0.66-8.58-1-13-1.65-0.33-3.3-0.66-5-1-0.167-3.15-0.334-6.29-0.5-9.44-0.0477-0.898-0.0954-1.8-0.145-2.72-0.0677-1.28-0.0677-1.28-0.137-2.59-0.0419-0.791-0.0838-1.58-0.127-2.4-0.047-0.952-0.0918-1.9-0.0918-2.86h-6v-19h-6c-0.902-2.71-1.12-4.24-1.1-7.01 0.00483-1.14 0.00483-1.14 0.00977-2.29 0.0126-1.18 0.0126-1.18 0.0254-2.38 0.00451-0.797 0.00902-1.59 0.0137-2.42 0.0118-1.97 0.0297-3.93 0.0488-5.9h-6c-0.33-6.27-0.66-12.5-1-19h-6c-0.495-3.47-0.495-3.47-1-7-4.13-0.25-9.92-0.0781-13 3zm27 36 1 4zm13 33 1 2zm90 14v5h1v-5h-1zm-18 187 1 4z" fill="#F9FAFC"/>
<path transform="translate(157 12.9)" d="m0 0c0.695 0.00202 1.39 0.00405 2.1 0.00613 0.728-0.00175 1.46-0.0035 2.21-0.00531 2.42-0.00442 4.84-0.00148 7.26 0.00189 1.68-6.73e-4 3.35-0.00164 5.03-0.0029 3.52-0.00148 7.03 6.78e-4 10.5 0.00534 4.51 0.00569 9.03 0.00242 13.5-0.00357 3.46-0.00361 6.92-0.00247 10.4 1.28e-4 1.66 6.69e-4 3.33-1.57e-4 4.99-0.00248 2.32-0.00253 4.65 0.00132 6.97 0.0069 0.693-0.00202 1.39-0.00405 2.1-0.00613 4.77 0.0213 4.77 0.0213 7 1.14 0.33 0.99 0.66 1.98 1 3 2.4 1.2 4.05 1.19 6.72 1.28 0.932 0.0374 1.86 0.0748 2.82 0.113 1.46 0.0522 1.46 0.0522 2.96 0.105 1.93 0.0687 3.85 0.141 5.78 0.219 0.857 0.0303 1.71 0.0606 2.6 0.0918 2.12 0.189 2.12 0.189 4.12 1.19 0.625 2.06 0.625 2.06 1 4 1.05 0.0909 1.05 0.0909 2.12 0.184 0.91 0.0838 1.82 0.168 2.76 0.254 0.905 0.0812 1.81 0.162 2.74 0.246 2.38 0.316 2.38 0.316 4.38 1.32v5h11c0.227 0.949 0.454 1.9 0.688 2.88 2.01 3.38 2.01 3.38 5.41 3.97 3.3 0.488 6.58 0.881 9.91 1.16v5c1.18 0.34 1.18 0.34 2.38 0.688 2.62 1.31 2.62 1.31 3.56 3.88 0.351 0.804 0.701 1.61 1.06 2.44 3.05 0.898 3.05 0.898 6 1v5c1.65 0.66 3.3 1.32 5 2 0.33 3.63 0.66 7.26 1 11 1.65 0.33 3.3 0.66 5 1 1.02 1.99 2.02 3.99 3 6 1.65 0.66 3.3 1.32 5 2 0.33 3.63 0.66 7.26 1 11 1.65 0.66 3.3 1.32 5 2v11c2.31 0.66 4.62 1.32 7 2 0.33 3.63 0.66 7.26 1 11 1.65 0.66 3.3 1.32 5 2 0.0606 1.22 0.121 2.44 0.184 3.69 0.0845 1.62 0.169 3.25 0.254 4.87 0.0393 0.8 0.0786 1.6 0.119 2.42 0.251 4.73 0.697 9.34 1.44 14 1.65 0.33 3.3 0.66 5 1 0.0103 0.643 0.0206 1.29 0.0312 1.95 0.108 6.68 0.223 13.4 0.341 20 0.0433 2.49 0.085 4.99 0.125 7.48 0.0577 3.58 0.121 7.17 0.186 10.8 0.0251 1.68 0.0251 1.68 0.0506 3.38 0.0199 1.04 0.0399 2.08 0.0604 3.15 0.0155 0.915 0.0311 1.83 0.0471 2.77 0.147 2.28 0.521 4.27 1.16 6.46 1.65 0.33 3.3 0.66 5 1-0.33 37-0.66 73.9-1 112h-4c-0.954 6.52-1.21 12.9-1.32 19.5-0.0312 1.61-0.0312 1.61-0.063 3.26-0.065 3.41-0.124 6.83-0.183 10.2-0.0432 2.32-0.0868 4.65-0.131 6.97-0.107 5.68-0.208 11.4-0.307 17h-5c-0.66 8.58-1.32 17.2-2 26h-5c-0.33 4.62-0.66 9.24-1 14h-6c-0.33 4.29-0.66 8.58-1 13h-5c-0.33 4.29-0.66 8.58-1 13h-6c-0.33 1.65-0.66 3.3-1 5-1.65 0.33-3.3 0.66-5 1-0.33 2.31-0.66 4.62-1 7h-6v7h-6c-0.0606 0.615-0.121 1.23-0.184 1.86-0.0838 0.808-0.168 1.62-0.254 2.45-0.0812 0.801-0.162 1.6-0.246 2.43-0.316 2.26-0.316 2.26-1.32 5.26-3.63 0.33-7.26 0.66-11 1-0.33 1.98-0.66 3.96-1 6h-6c-0.33 1.98-0.66 3.96-1 6-4.29 0.33-8.58 0.66-13 1-0.33 1.98-0.66 3.96-1 6h-24c-0.33 1.65-0.66 3.3-1 5-9.57 1.01-19.1 1.15-28.7 1.13-1.59 6.76e-4 -3.18 0.00165-4.77 0.0029-3.31 0.00146-6.62-6.36e-4 -9.93-0.00534-4.21-0.00569-8.41-0.00241-12.6 0.00357-3.27 0.00364-6.55 0.00245-9.82-1.28e-4 -1.55-6.59e-4 -3.1 1.22e-4 -4.65 0.00248-9.22 0.0109-18.3-0.263-27.5-1.14v-5h-20v-6c-1.18 0.0174-1.18 0.0174-2.38 0.0352-5.66 0.0486-11-0.0222-16.6-1.04v-6h-13c-1-4-1-4 0-7h-7v-6h-6c-0.33-1.98-0.66-3.96-1-6-1.98-0.33-3.96-0.66-6-1v-6h-6c-0.934-3.01-1.04-3.87 0-7h-7c-1.49-4.47-1.49-8.53 0-13l-2.88 0.188c-1.03-0.0619-2.06-0.124-3.12-0.188-2.45-3.68-2.23-5.65-2-10l1-3h-6c-1.49-6.69-2.28-12.2-1-19h-5c-2.2-3.54-2.24-6.44-2.19-10.6 0.00645-1.14 0.0129-2.27 0.0195-3.44 0.168-3 0.168-3 1.17-6h-6v-25h-6c-0.33-3.3-0.66-6.6-1-10h-1c-0.0253-7.65-0.0428-15.3-0.0549-23-0.00504-2.61-0.0119-5.21-0.0205-7.82-0.0121-3.74-0.0178-7.48-0.0222-11.2-0.00516-1.17-0.0103-2.34-0.0156-3.55-7.55e-5 -1.08-1.51e-4 -2.16-2.29e-4 -3.28-0.00222-0.955-0.00444-1.91-0.00673-2.89 0.12-2.29 0.12-2.29 1.12-4.29h-6c-0.995-2.98-1.13-4.95-1.13-8.07-0.00315-1.03-0.0063-2.06-0.00955-3.12 0.00304-1.67 0.00304-1.67 0.00613-3.37-9.57e-4 -1.14-0.00191-2.29-0.0029-3.46-6.81e-4 -2.42 0.00117-4.84 0.00534-7.25 0.00535-3.71 5.18e-5 -7.41-0.00635-11.1 6.61e-4 -2.35 0.00194-4.69 0.00391-7.04-0.00202-1.11-0.00405-2.23-0.00613-3.37 0.00315-1.03 0.0063-2.06 0.00955-3.12 7.96e-4 -0.908 0.00159-1.82 0.00241-2.75 0.127-2.31 0.127-2.31 1.13-5.31h5c-0.00666-1.09-0.00666-1.09-0.0135-2.19-0.0402-6.84-0.0706-13.7-0.0902-20.5-0.0104-3.52-0.0245-7.03-0.0473-10.5-0.026-4.05-0.0356-8.1-0.0444-12.1-0.0103-1.25-0.0206-2.51-0.0313-3.8-7.65e-4 -5.98 0.128-11.2 2.23-16.8h4v-20h1c-0.0116-0.699-0.0232-1.4-0.0352-2.12-0.00902-0.91-0.018-1.82-0.0273-2.76-0.0116-0.905-0.0232-1.81-0.0352-2.74 0.0977-2.38 0.0977-2.38 1.1-4.38h5c0.0909-1.16 0.0909-1.16 0.184-2.34 0.0838-1 0.168-2.01 0.254-3.04 0.0812-0.998 0.162-2 0.246-3.02 0.316-2.6 0.316-2.6 1.32-4.6h5c-0.0116-1.2-0.0232-2.41-0.0352-3.65-0.00938-1.58-0.0185-3.15-0.0273-4.73-0.00838-0.794-0.0168-1.59-0.0254-2.41-0.0254-5.99-0.0254-5.99 1.09-8.22h5c-0.0206-1.24-0.0412-2.48-0.0625-3.75 0-3.82 0.341-6.81 2.06-10.2h5c0.33-2.31 0.66-4.62 1-7h5c0.0909-1.05 0.0909-1.05 0.184-2.12 0.0838-0.91 0.168-1.82 0.254-2.76 0.0812-0.905 0.162-1.81 0.246-2.74 0.316-2.38 0.316-2.38 1.32-4.38h5c0.33-2.31 0.66-4.62 1-7h6c0.33-2.31 0.66-4.62 1-7 2.97-0.495 2.97-0.495 6-1v-5h6c0.33-1.98 0.66-3.96 1-6 3.63-0.33 7.26-0.66 11-1 0.33-1.98 0.66-3.96 1-6 3.01-0.934 3.87-1.04 7 0 0.0619-0.784 0.124-1.57 0.188-2.38 0.812-2.62 0.812-2.62 2.94-3.78 3.36-0.986 6.19-1.04 9.69-0.969 1.16 0.018 2.32 0.0361 3.52 0.0547 1.32 0.0348 1.32 0.0348 2.67 0.0703 0.144-0.804 0.289-1.61 0.438-2.44 0.562-2.56 0.562-2.56 1.56-3.56 1.34-0.0863 2.69-0.107 4.04-0.0977 0.809 0.00322 1.62 0.00645 2.45 0.00977 0.85 0.00838 1.7 0.0168 2.58 0.0254 0.854 0.00451 1.71 0.00902 2.59 0.0137 2.12 0.0118 4.23 0.0298 6.35 0.0488 0.144-0.804 0.289-1.61 0.438-2.44 0.941-4.28 2.32-3.68 6.42-3.7zm136 27.1 1 4zm-124 47v3c-1.11-0.0413-2.23-0.0825-3.38-0.125-5.02-0.018-9.75 1.01-14.6 2.12-0.33 1.65-0.66 3.3-1 5-0.784-0.0413-1.57-0.0825-2.38-0.125-2.79-0.162-2.79-0.162-4.62 2.12-0.167 2.58-0.167 2.58 0 5h-5c-0.33 1.98-0.66 3.96-1 6-0.784-0.0619-1.57-0.124-2.38-0.188-1.3 0.0928-1.3 0.0928-2.62 0.188-2.21 3.31-2.22 4.34-2.12 8.19 0.0271 1.35 0.0271 1.35 0.0547 2.73 0.0232 0.687 0.0464 1.37 0.0703 2.08-0.784-0.0619-1.57-0.124-2.38-0.188-1.3 0.0928-1.3 0.0928-2.62 0.188-2.21 3.31-2.22 4.34-2.13 8.19 0.0271 1.35 0.0271 1.35 0.0547 2.73 0.0232 0.687 0.0464 1.37 0.0703 2.08h-5c-1.3 2.61-1.11 4.53-1.1 7.45 0.00322 1.08 0.00645 2.15 0.00977 3.26 0.00838 1.13 0.0168 2.26 0.0254 3.42 0.00451 1.14 0.00902 2.27 0.0137 3.44 0.0118 2.81 0.0283 5.62 0.0488 8.43h-5c-1.71 5.93-2.27 11.2-2.2 17.3 0.00283 0.854 0.00566 1.71 0.00858 2.59 0.0111 2.7 0.0362 5.4 0.0617 8.1 0.01 1.84 0.0192 3.68 0.0273 5.53 0.0219 4.49 0.0564 8.98 0.0977 13.5h-5c-1.14 2.27-1.13 3.51-1.13 6.03-0.00282 0.843-0.00564 1.69-0.00854 2.55 0.00202 0.926 0.00405 1.85 0.00613 2.81-0.00175 0.974-0.0035 1.95-0.00531 2.95-0.00441 3.23-0.00148 6.46 0.00189 9.69-6.73e-4 2.24-0.00164 4.47-0.0029 6.71-0.00148 4.69 6.76e-4 9.38 0.00534 14.1 0.0057 6.03 0.00242 12.1-0.00357 18.1-0.0036 4.62-0.00247 9.24 1.28e-4 13.9 6.69e-4 2.22-1.6e-4 4.45-0.00248 6.67-0.00253 3.1 0.00131 6.2 0.0069 9.3-0.00202 0.928-0.00405 1.86-0.00613 2.81-0.397 4.05-0.397 4.05 1.14 7.45 2 0.0408 4 0.0425 6 0-0.33 0.99-0.66 1.98-1 3-0.109 3-0.164 5.97-0.168 8.97-0.00333 0.879-0.00666 1.76-0.0101 2.66-0.00506 1.86-0.00741 3.71-0.00725 5.57-0.00219 2.85-0.0204 5.7-0.0393 8.55-0.00293 1.8-0.00492 3.61-0.00586 5.41-0.00719 0.855-0.0144 1.71-0.0218 2.59-0.197 4.6-0.197 4.6 2.25 8.25 3.08 0.167 3.08 0.167 6 0-0.33 0.99-0.66 1.98-1 3-0.0961 2.72-0.139 5.41-0.125 8.12-0.00387 0.741-0.00773 1.48-0.0117 2.25-0.331 3.61-0.331 3.61 1.14 6.63 2 0.0408 4 0.0425 6 0-0.33 0.99-0.66 1.98-1 3-0.402 5.15-0.402 5.15 1 10h7c-0.33 0.99-0.66 1.98-1 3-0.402 5.15-0.402 5.15 1 10h7c-0.278 1.18-0.278 1.18-0.562 2.38-0.697 2.6-0.697 2.6 0.562 4.62h6c-0.186 0.619-0.371 1.24-0.562 1.88-0.674 2.17-0.674 2.17 0.562 4.12 3.05 0.47 3.05 0.47 6.56 0.625 1.2 0.0748 2.4 0.15 3.63 0.227 0.927 0.049 1.85 0.098 2.81 0.148-0.186 0.639-0.371 1.28-0.562 1.94-0.144 0.681-0.289 1.36-0.438 2.06 1.11 1.34 1.11 1.34 3.94 1.1 1.19-0.0116 2.39-0.0232 3.62-0.0352 1.2-0.00902 2.4-0.018 3.63-0.0273 1.39-0.0174 1.39-0.0174 2.81-0.0352-0.278 1.21-0.278 1.21-0.562 2.44-0.217 1.27-0.217 1.27-0.438 2.56 1.56 1.56 3.06 1.13 5.23 1.13 0.898 0.00315 1.8 0.0063 2.72 0.00955 1.46-0.00304 1.46-0.00304 2.96-0.00613 1.49 0.00144 1.49 0.00144 3.02 0.0029 2.11 6.82e-4 4.22-0.00117 6.33-0.00534 3.24-0.00535 6.48-5.54e-5 9.72 0.00635 2.04-6.61e-4 4.09-0.00194 6.13-0.00391 0.976 0.00202 1.95 0.00405 2.96 0.00613 0.898-0.00315 1.8-0.0063 2.72-0.00955 0.794-7.96e-4 1.59-0.00159 2.41-0.00241 1.84 0.0719 1.84 0.0719 2.82-1.13v-5h12c0.66-1.65 1.32-3.3 2-5 2.62-0.812 2.62-0.812 5-1 0.33-1.98 0.66-3.96 1-6h6c0.33-2.31 0.66-4.62 1-7h6c0.33-1.98 0.66-3.96 1-6h5c0.33-2.31 0.66-4.62 1-7h5c0.864-2.59 1.18-4.34 1.32-7.01 0.0419-0.757 0.0838-1.51 0.127-2.29 0.0393-0.786 0.0786-1.57 0.119-2.38 0.0432-0.797 0.0864-1.59 0.131-2.42 0.106-1.97 0.207-3.93 0.307-5.9h5c0.33-10.9 0.66-21.8 1-33h5c0.761-34 1.24-68.1 1.53-102 0.0517-6 0.107-12 0.161-18 0.105-11.6 0.207-23.3 0.307-34.9h-1c-0.33-5.94-0.66-11.9-1-18-1.65-0.33-3.3-0.66-5-1v-20c-2.97-0.495-2.97-0.495-6-1v-12h-1v-6h-6c-1.13-4.75-1.13-4.75 0-7-0.969-0.289-1.94-0.578-2.94-0.875-3.06-1.12-3.06-1.12-4.06-3.12-0.136-3-0.043-5.99 0-9-3.96-0.33-7.92-0.66-12-1-0.99-2.97-0.99-2.97-2-6h-5c-0.227-0.784-0.454-1.57-0.688-2.38-1.08-2.75-1.08-2.75-3.5-3.94-3.35-0.818-6.38-0.822-9.81-0.688l-1-6c-6.07-0.0741-12.1-0.129-18.2-0.165-2.07-0.0151-4.13-0.0356-6.2-0.0615-2.97-0.0363-5.93-0.0534-8.9-0.0667-0.925-0.0155-1.85-0.031-2.8-0.0469-0.861-2.27e-4 -1.72-4.53e-4 -2.61-6.87e-4 -1.14-0.00999-1.14-0.00999-2.29-0.0202-2.56 0.464-3.46 1.28-4.99 3.36zm80 24 1 2zm-223 58v6h1v-6h-1zm249 118v25h1v-25h-1zm-236 103 1 3zm6 13 1 2z" fill="#FBFCFE"/>
<path transform="translate(607 18.9)" d="m0 0c0.975 0.00222 1.95 0.00444 2.95 0.00673 1.1 7.55e-5 2.2 1.51e-4 3.34 2.29e-4 1.2 0.00516 2.4 0.0103 3.63 0.0156 1.22 0.00141 2.44 0.00283 3.7 0.00429 3.91 0.00562 7.83 0.0182 11.7 0.0309 2.65 0.00501 5.29 0.00958 7.94 0.0137 6.5 0.0111 13 0.0278 19.5 0.0488 0.227 0.784 0.454 1.57 0.688 2.38 1.64 3.28 2.95 3.46 6.31 4.62 0.822 26.4 1.14 52.8 1.12 79.3-0.00442 5.16-0.00285 10.3-0.0021 15.5 5.18e-4 8.89-0.00255 17.8-0.00824 26.7-0.00821 12.9-0.0107 25.7-0.012 38.6-0.00218 20.9-0.00879 41.8-0.0183 62.6-0.00921 20.2-0.0163 40.5-0.0205 60.8-2.63e-4 1.25-5.25e-4 2.51-7.96e-4 3.8-0.00131 6.29-0.00257 12.6-0.00381 18.9-0.0103 52-0.0279 104-0.0503 156-10.9 0.0694-21.8 0.123-32.8 0.155-5.07 0.0157-10.1 0.037-15.2 0.0709-4.89 0.0325-9.78 0.0505-14.7 0.0583-1.87 0.00556-3.74 0.0164-5.61 0.0326-2.61 0.0217-5.22 0.0248-7.83 0.0234-1.17 0.0162-1.17 0.0162-2.36 0.0327-2.15-0.0125-2.15-0.0125-5.58-0.373-2.38-3.57-2.25-5.07-2.25-9.3-0.00231-0.645-0.00462-1.29-0.00699-1.95-0.00532-2.18 0.0037-4.35 0.0126-6.53-8.72e-4 -1.57-0.00262-3.14-0.00518-4.71-0.00449-4.33 0.00355-8.65 0.0136-13 0.00861-4.66 0.00572-9.32 0.0042-14-0.00105-8.08 0.00524-16.2 0.0165-24.2 0.0162-11.7 0.0215-23.4 0.024-35 0.00438-18.9 0.0177-37.9 0.0366-56.8 0.0183-18.4 0.0325-36.8 0.041-55.2 5.25e-4 -1.13 0.00105-2.27 0.00159-3.44 0.00261-5.69 0.00514-11.4 0.00762-17.1 0.0207-47.2 0.056-94.5 0.101-142-0.798-0.126-1.6-0.253-2.42-0.383-2.58-0.617-2.58-0.617-3.89-2.49-0.687-2.13-0.687-2.13-0.687-5.12-3.79 0.219-7.58 0.481-11.4 0.75-1.08 0.0619-2.16 0.124-3.27 0.188-1.55 0.116-1.55 0.116-3.12 0.234-0.953 0.0628-1.91 0.126-2.89 0.19-2.51 0.391-2.51 0.391-3.51 2.64-0.411 0.987-0.411 0.987-0.83 1.99-5.1 1.52-10.6 1.11-15.9 1.06-0.879-0.00451-1.76-0.00902-2.66-0.0137-2.15-0.0117-4.31-0.0296-6.46-0.0488-0.33 1.98-0.66 3.96-1 6-12.4 0.495-12.4 0.495-25 1-0.66 1.65-1.32 3.3-2 5-3.62 1.3-7.35 1.12-11.2 1.1-1.74-0.00483-1.74-0.00483-3.51-0.00977-1.2-0.00838-2.4-0.0168-3.63-0.0254-1.22-0.00451-2.44-0.00902-3.69-0.0137-3-0.0118-6-0.0282-9-0.0488-1.71-3.41-1.39-7.3-1.56-11.1-0.0425-0.887-0.0849-1.77-0.129-2.69-0.373-8.42-0.407-16.8-0.309-25.3h-5c-1.12-4.75-1.12-4.75 0-7h5c-0.0232-0.701-0.0464-1.4-0.0703-2.12-0.114-6.01 0.164-11.2 2.07-16.9 3.19-1.59 6.63-1.1 10.1-1.06 0.754 0.00451 1.51 0.00902 2.29 0.0137 1.86 0.0118 3.73 0.0297 5.59 0.0488 0.33-1.98 0.66-3.96 1-6h25c0.33-1.98 0.66-3.96 1-6 10.7-1.07 21.3-1.1 32-1 0.33-1.98 0.66-3.96 1-6 5.33-1.11 10.5-1.12 15.9-1.06 0.879 0.00451 1.76 0.00902 2.66 0.0137 2.15 0.0117 4.31 0.0296 6.46 0.0488 0.0825-0.619 0.165-1.24 0.25-1.88 0.75-2.12 0.75-2.12 2.39-3.36 3.11-1.01 5.82-0.986 9.09-0.958 1.3 0.00645 2.59 0.0129 3.93 0.0195 1.36 0.0167 2.73 0.0336 4.09 0.0508 1.38 0.01 2.76 0.0192 4.14 0.0273 3.37 0.0236 6.74 0.0565 10.1 0.0977 0.144-0.804 0.289-1.61 0.438-2.44 0.773-3.52 0.773-3.52 3.77-3.68zm-33.2 7.12 4 1zm-109 59v10h1v-10h-1zm118 337v13h1v-13h-1z" fill="#FBFCFE"/>
<path transform="translate(1566 18.9)" d="m0 0c1.49 0.00667 2.98 0.0186 4.46 0.0352 0.759 0.00451 1.52 0.00902 2.3 0.0137 1.88 0.0118 3.76 0.0298 5.64 0.0488 0.99 2.48 0.99 2.48 2 5 6.6 0.33 13.2 0.66 20 1v463c-7.88 1.12-7.88 1.12-11.9 1.11-0.9-7.55e-5 -1.8-1.51e-4 -2.73-2.29e-4 -1.42-0.00774-1.42-0.00774-2.87-0.0156-1.48-0.00212-1.48-0.00212-3-0.00429-3.14-0.00557-6.28-0.0181-9.41-0.0309-2.14-0.00502-4.27-0.00958-6.41-0.0137-5.22-0.011-10.4-0.0277-15.7-0.0488v4h-27v-4h-6c-1.02-3.06-1.15-5.23-1.21-8.44-0.0199-1.12-0.0399-2.25-0.0604-3.41-0.0167-1.23-0.0334-2.45-0.0507-3.72-0.0313-1.92-0.0313-1.92-0.0632-3.88-0.056-3.47-0.105-6.94-0.153-10.4-0.0298-2.15-0.0612-4.3-0.093-6.44-0.271-18.3-0.475-36.6-0.499-55-0.00259-0.904-0.00518-1.81-0.00784-2.74-0.00575-2.51-0.00436-5.02 3.05e-5 -7.53-0.00198-0.725-0.00396-1.45-6e-3 -2.2 0.0143-3.04 0.168-5.37 1.14-8.29h-5c-1.33-2.66-1.13-4.67-1.13-7.66-0.00446-1.21-0.00892-2.42-0.0135-3.67 8.93e-5 -1.36 2.79e-4 -2.71 5.59e-4 -4.07-0.0033-1.43-0.00702-2.86-0.0111-4.29-0.01-3.95-0.0137-7.89-0.0164-11.8-0.0039-4.25-0.0135-8.5-0.0222-12.8-0.0198-10.3-0.0298-20.5-0.0387-30.8-0.00438-4.83-0.00975-9.66-0.015-14.5-0.017-16.1-0.0315-32.1-0.0387-48.2-0.00191-4.17-0.00383-8.33-0.00579-12.5-4.84e-4 -1.04-9.67e-4 -2.07-0.00147-3.14-0.00831-16.8-0.0337-33.6-0.0661-50.4-0.033-17.2-0.0511-34.5-0.0543-51.7-0.00217-9.68-0.011-19.4-0.0365-29-0.0216-8.24-0.0298-16.5-0.02-24.7 0.00456-4.21 0.00254-8.41-0.0168-12.6-0.0175-3.85-0.0167-7.69-0.0011-11.5 0.0024-1.4-0.00205-2.79-0.0138-4.19-0.015-1.89-0.00313-3.78 0.0102-5.67-9.77e-4 -1.05-0.00195-2.1-0.00296-3.19 0.498-2.6 0.498-2.6 2.38-4.43 2.52-1.39 4.1-1.52 6.97-1.5 0.961 2.27e-4 1.92 4.53e-4 2.91 6.87e-4 1.54 0.0232 1.54 0.0232 3.12 0.0469 1.59 0.00637 1.59 0.00637 3.21 0.0129 3.38 0.0168 6.77 0.0544 10.1 0.0926 2.29 0.015 4.59 0.0287 6.88 0.041 5.62 0.0331 11.2 0.0833 16.9 0.146 0.144-0.804 0.289-1.61 0.438-2.44 0.864-3.93 0.905-3.54 5.16-3.66z" fill="#FCFDFF"/>
<path transform="translate(807,390)" d="m0 0h72v6c0.788-0.0116 1.58-0.0232 2.39-0.0352 1.09-0.00902 2.18-0.018 3.3-0.0273 1.06-0.0116 2.11-0.0232 3.2-0.0352 5.71 0.136 11.4 0.659 17.1 1.1-0.33 19.1-0.66 38.3-1 58h-5c-0.66 10.9-1.32 21.8-2 33h-5c-0.33 1.65-0.66 3.3-1 5h-58c-0.33-1.32-0.66-2.64-1-4-0.747-0.0146-1.49-0.0292-2.26-0.0442-3.37-0.0743-6.74-0.171-10.1-0.268-1.18-0.0226-2.35-0.0451-3.56-0.0684-1.12-0.0354-2.24-0.0709-3.4-0.107-1.56-0.0393-1.56-0.0393-3.14-0.0793-0.832-0.143-1.66-0.285-2.52-0.432-2.39-3.58-2.24-5.25-2.19-9.5 0.00967-1.72 0.00967-1.72 0.0195-3.47 0.168-3.03 0.168-3.03 1.17-6.03h-6c-1.05-3.16-1.13-5.38-1.13-8.69-0.00315-1.17-0.0063-2.34-0.00955-3.54 0.00202-1.26 0.00405-2.53 0.00613-3.83-9.57e-4 -1.3-0.00191-2.59-0.0029-3.93-0.00147-2.74 6.68e-4 -5.49 0.00534-8.23 0.00569-3.51 0.00242-7.02-0.00357-10.5-0.00449-3.35-0.00134-6.71 0.00113-10.1-0.00202-1.26-0.00405-2.52-0.00613-3.82 0.00315-1.17 0.0063-2.34 0.00955-3.55 7.96e-4 -1.03 0.00159-2.06 0.00241-3.12 0.113-2.4 0.438-4.41 1.13-6.7h5c-0.0412-1.22-0.0825-2.43-0.125-3.69-0.133-3.93 0.515-5.29 2.12-9.31zm-1 5 1 2z" fill="#F8F8FA"/>
<path transform="translate(169,427)" d="m0 0c15.2 0.33 30.4 0.66 46 1v3h-45c-0.33-1.32-0.66-2.64-1-4z" fill="#000002"/>
<path transform="translate(878,394)" d="m0 0c0.33 0.66 0.66 1.32 1 2 0.788-0.0116 1.58-0.0232 2.39-0.0352 7.92-0.0656 15.7 0.312 23.6 1.04-0.33 0.99-0.66 1.98-1 3-8.25-0.66-16.5-1.32-25-2-0.33-1.32-0.66-2.64-1-4z" fill="#000002"/>
<path transform="translate(156,421)" d="m0 0c6.93 0.495 6.93 0.495 14 1-0.33 1.32-0.66 2.64-1 4-3.96-0.33-7.92-0.66-12-1-0.33-1.32-0.66-2.64-1-4z" fill="#000002"/>
<path transform="translate(216,422)" d="m0 0h12v3c-5.94 0.495-5.94 0.495-12 1v-4z" fill="#000002"/>
<path transform="translate(143,414)" d="m0 0 1 2c3.05 0.47 3.05 0.47 6.56 0.625 1.2 0.0748 2.4 0.15 3.63 0.227 0.927 0.049 1.85 0.098 2.81 0.148-0.33 0.99-0.66 1.98-1 3-5.94-0.99-5.94-0.99-12-2-0.33-1.32-0.66-2.64-1-4z" fill="#000002"/>
<path transform="translate(31,354)" d="m0 0h1v14h-1v-14z" fill="#FCFDFF"/>
<path transform="translate(798,428)" d="m0 0h1v11h-1v-11z" fill="#FCFDFF"/>
<path transform="translate(24,296)" d="m0 0h1v9h-1v-9z" fill="#FCFDFF"/>
<path transform="translate(1278,38)" d="m0 0h1v9h-1v-9z" fill="#000002"/>
<path transform="translate(1231,144)" d="m0 0h1v6h-1v-6z" fill="#FCFDFF"/>
<path transform="translate(798,441)" d="m0 0h1v5h-1v-5z" fill="#FCFDFF"/>
<path transform="translate(798,421)" d="m0 0h1v5h-1v-5z" fill="#FCFDFF"/>
<path transform="translate(111,350)" d="m0 0h1v5h-1v-5z" fill="#000002"/>
<path transform="translate(267,144)" d="m0 0h1v5h-1v-5z" fill="#FCFDFF"/>
<path transform="translate(31,135)" d="m0 0h1v5h-1v-5z" fill="#FCFDFF"/>
<path transform="translate(31,370)" d="m0 0 1 4z" fill="#FCFDFF"/>
<path transform="translate(25,344)" d="m0 0 1 4z" fill="#FCFDFF"/>
<path transform="translate(1383,331)" d="m0 0 1 4z" fill="#000002"/>
<path transform="translate(161,91)" d="m0 0 2 1z" fill="#000002"/>
</svg>
